<svg width="6" height="6" fill="none" xmlns="http://www.w3.org/2000/svg"><mask id="a" fill="#fff"><path d="M0 4.935L5.044.081l.693.721L.693 5.656 0 4.936z"/><path d="M.802 0l4.854 5.044-.72.693L.08.693.802 0z"/></mask><path d="M0 4.935L5.044.081l.693.721L.693 5.656 0 4.936z" fill="#E0E0E0"/><path d="M.802 0l4.854 5.044-.72.693L.08.693.802 0z" fill="#E0E0E0"/><path d="M0 4.935l-.693-.72-.721.693.693.72L0 4.936zM5.044.081l.72-.693-.693-.72-.72.693.693.72zm.693.721l.694.72.72-.693-.693-.72-.72.693zM.693 5.656l-.72.693.693.72.72-.693-.693-.72zM.802 0l.72-.693-.693-.721-.72.693L.802 0zm4.854 5.044l.693.72.72-.693-.693-.72-.72.693zm-.72.693l-.721.694.693.72.72-.693-.693-.72zM.08.693l-.693-.72-.72.693.693.72.72-.693zm.612 4.963L5.737.802 4.351-.639-.693 4.215l1.386 1.44zM4.323.775l.694.72L6.457.11l-.693-.72L4.324.774zm.72-.694L0 4.935l1.387 1.441L6.43 1.523 5.044.08zm-3.63 4.881l-.692-.72-1.442 1.387.694.72 1.441-1.387zM.082.693l4.854 5.044 1.441-1.386L1.523-.693.08.693zm4.881 3.63l-.72.694 1.387 1.44.72-.693-1.387-1.44zm.694.72L.802 0-.639 1.387 4.215 6.43l1.44-1.387zM.775 1.414l.72-.692L.11-.721l-.721.694L.775 1.414z" fill="#333" mask="url(#a)"/></svg>